# xmcd CD database file
#
# Track frame offsets:
#	150
#	16210
#	30604
#	45075
#	59410
#	73231
#	87971
#	101918
#	117220
#	131933
#	146774
#	159699
#	172846
#	185431
#	200864
#	215359
#	228272
#	250464
#	266084
#	280524
#
# Disc length: 3925 seconds
#
# Revision: 1
# Processed by: cddbd v1.5.1PL0 Copyright (c) Steve Scherf et al.
# Submitted via: CDex 1.51
#
DISCID=280f5314
DTITLE=Glenn Miller - Volume 1
DYEAR=2000
DGENRE=Jazz
TTITLE0=In The Mood
TTITLE1=My Melancholy Baby
TTITLE2=My Blue Heaven
TTITLE3=Don't Sit Under The Apple Tree
TTITLE4=I Want To Be Happy
TTITLE5=Indian Summer
TTITLE6=Elmer's Tune
TTITLE7=Song Of The Volga Boatman
TTITLE8=(I've got a girl in) Kalamazoo
TTITLE9=American Patrol
TTITLE10=Moon Love
TTITLE11=Bugle Call Rag
TTITLE12=Running Wild
TTITLE13=Sunrise Serenade
TTITLE14=Pennsylvania 6-5000
TTITLE15=When You Wish Upon A Star
TTITLE16=Anvil Chorus
TTITLE17=Serenade In Blue
TTITLE18=A String Of Pearls
TTITLE19=Rhapsody In Blue
EXTD=MD YEAR: 2000
EXTT0=
EXTT1=
EXTT2=
EXTT3=
EXTT4=
EXTT5=
EXTT6=
EXTT7=
EXTT8=
EXTT9=
EXTT10=
EXTT11=
EXTT12=
EXTT13=
EXTT14=
EXTT15=
EXTT16=
EXTT17=
EXTT18=
EXTT19=
PLAYORDER=
